<mxfile host="Electron" agent="Mozilla/5.0 (Macintosh; Intel Mac OS X 10_15_7) AppleWebKit/537.36 (KHTML, like Gecko) draw.io/26.2.15 Chrome/134.0.6998.205 Electron/35.2.1 Safari/537.36" version="26.2.15">
  <diagram name="Page-1" id="0AGCFBf2FpTad1DNYMGd">
    <mxGraphModel dx="2751" dy="1145" grid="1" gridSize="10" guides="1" tooltips="1" connect="1" arrows="1" fold="1" page="1" pageScale="1" pageWidth="850" pageHeight="1100" math="0" shadow="0">
      <root>
        <mxCell id="0" />
        <mxCell id="1" parent="0" />
        <mxCell id="Wv8BJaC0_amkNu4p2bPB-7" value="" style="rounded=1;whiteSpace=wrap;html=1;arcSize=9;dashed=1;fillColor=none;" vertex="1" parent="1">
          <mxGeometry x="820" y="310" width="550" height="220" as="geometry" />
        </mxCell>
        <mxCell id="Wv8BJaC0_amkNu4p2bPB-1" value="/ckb/GET/agency/data/exists" style="rounded=1;whiteSpace=wrap;html=1;" vertex="1" parent="1">
          <mxGeometry x="686" y="205" width="180" height="80" as="geometry" />
        </mxCell>
        <mxCell id="Wv8BJaC0_amkNu4p2bPB-34" style="edgeStyle=orthogonalEdgeStyle;rounded=0;orthogonalLoop=1;jettySize=auto;html=1;exitX=1;exitY=0.25;exitDx=0;exitDy=0;entryX=0;entryY=0.25;entryDx=0;entryDy=0;" edge="1" parent="1" source="Wv8BJaC0_amkNu4p2bPB-2" target="Wv8BJaC0_amkNu4p2bPB-1">
          <mxGeometry relative="1" as="geometry" />
        </mxCell>
        <mxCell id="Wv8BJaC0_amkNu4p2bPB-2" value="/globalclassifier/GET/dataset/agency/validate" style="rounded=1;whiteSpace=wrap;html=1;" vertex="1" parent="1">
          <mxGeometry x="310" y="200" width="290" height="100" as="geometry" />
        </mxCell>
        <mxCell id="Wv8BJaC0_amkNu4p2bPB-6" style="edgeStyle=orthogonalEdgeStyle;rounded=0;orthogonalLoop=1;jettySize=auto;html=1;exitX=0.5;exitY=0;exitDx=0;exitDy=0;entryX=0;entryY=0.5;entryDx=0;entryDy=0;" edge="1" parent="1" source="Wv8BJaC0_amkNu4p2bPB-3" target="Wv8BJaC0_amkNu4p2bPB-2">
          <mxGeometry relative="1" as="geometry" />
        </mxCell>
        <mxCell id="Wv8BJaC0_amkNu4p2bPB-3" value="" style="rounded=1;whiteSpace=wrap;html=1;" vertex="1" parent="1">
          <mxGeometry x="20" y="310" width="220" height="170" as="geometry" />
        </mxCell>
        <mxCell id="Wv8BJaC0_amkNu4p2bPB-4" value="Agency Dataset Interface" style="text;html=1;align=center;verticalAlign=middle;whiteSpace=wrap;rounded=0;" vertex="1" parent="1">
          <mxGeometry x="67.48999999999978" y="426.5" width="139.58" height="33.5" as="geometry" />
        </mxCell>
        <mxCell id="Wv8BJaC0_amkNu4p2bPB-5" value="" style="image;sketch=0;aspect=fixed;html=1;points=[];align=center;fontSize=12;image=img/lib/mscae/Shared_Dashboard.svg;" vertex="1" parent="1">
          <mxGeometry x="77.85999999999967" y="330" width="105.49" height="86.5" as="geometry" />
        </mxCell>
        <mxCell id="Wv8BJaC0_amkNu4p2bPB-8" value="Common Knowledge Base" style="text;html=1;align=center;verticalAlign=middle;whiteSpace=wrap;rounded=0;" vertex="1" parent="1">
          <mxGeometry x="978" y="320" width="192" height="30" as="geometry" />
        </mxCell>
        <mxCell id="Wv8BJaC0_amkNu4p2bPB-37" style="edgeStyle=orthogonalEdgeStyle;rounded=0;orthogonalLoop=1;jettySize=auto;html=1;entryX=1;entryY=0.5;entryDx=0;entryDy=0;" edge="1" parent="1" source="Wv8BJaC0_amkNu4p2bPB-14" target="Wv8BJaC0_amkNu4p2bPB-26">
          <mxGeometry relative="1" as="geometry" />
        </mxCell>
        <mxCell id="Wv8BJaC0_amkNu4p2bPB-14" value="/ckb/GET/agency/data/import" style="rounded=1;whiteSpace=wrap;html=1;" vertex="1" parent="1">
          <mxGeometry x="875" y="370" width="180" height="80" as="geometry" />
        </mxCell>
        <mxCell id="Wv8BJaC0_amkNu4p2bPB-15" value="The dataset module of the global classifier first validates whether the dataset exists and then the next ruuter step is to import the data through S3 ferry" style="strokeWidth=1;shadow=0;dashed=0;align=center;html=1;shape=mxgraph.mockup.text.stickyNote2;fontColor=#666666;mainText=;fontSize=17;whiteSpace=wrap;fillColor=#ffffcc;strokeColor=#F62E00;" vertex="1" parent="1">
          <mxGeometry x="-430" y="70" width="290" height="230" as="geometry" />
        </mxCell>
        <mxCell id="Wv8BJaC0_amkNu4p2bPB-23" value="&lt;span style=&quot;font-size: 11px; text-wrap-mode: nowrap; background-color: rgb(18, 18, 18);&quot;&gt;True/False on whether&amp;nbsp;&lt;/span&gt;&lt;div style=&quot;font-size: 11px; text-wrap-mode: nowrap;&quot;&gt;agency exists in CKB&lt;/div&gt;" style="text;html=1;align=center;verticalAlign=middle;whiteSpace=wrap;rounded=0;" vertex="1" parent="1">
          <mxGeometry x="150" y="200" width="145" height="30" as="geometry" />
        </mxCell>
        <mxCell id="Wv8BJaC0_amkNu4p2bPB-45" style="edgeStyle=orthogonalEdgeStyle;rounded=0;orthogonalLoop=1;jettySize=auto;html=1;entryX=0;entryY=0.5;entryDx=0;entryDy=0;exitX=0.5;exitY=1;exitDx=0;exitDy=0;" edge="1" parent="1" source="Wv8BJaC0_amkNu4p2bPB-26" target="Wv8BJaC0_amkNu4p2bPB-44">
          <mxGeometry relative="1" as="geometry" />
        </mxCell>
        <mxCell id="Wv8BJaC0_amkNu4p2bPB-26" value="/globalclassifier/GET/dataset/agency/import" style="rounded=1;whiteSpace=wrap;html=1;" vertex="1" parent="1">
          <mxGeometry x="370" y="360" width="270" height="100" as="geometry" />
        </mxCell>
        <mxCell id="Wv8BJaC0_amkNu4p2bPB-27" style="edgeStyle=orthogonalEdgeStyle;rounded=0;orthogonalLoop=1;jettySize=auto;html=1;entryX=-0.005;entryY=0.357;entryDx=0;entryDy=0;entryPerimeter=0;" edge="1" parent="1" source="Wv8BJaC0_amkNu4p2bPB-3" target="Wv8BJaC0_amkNu4p2bPB-26">
          <mxGeometry relative="1" as="geometry" />
        </mxCell>
        <mxCell id="Wv8BJaC0_amkNu4p2bPB-29" value="Do we use DMR or CentOps to find the right CKB for the agency?" style="strokeWidth=1;shadow=0;dashed=0;align=center;html=1;shape=mxgraph.mockup.text.stickyNote2;fontColor=#666666;mainText=;fontSize=17;whiteSpace=wrap;fillColor=#ffffcc;strokeColor=#F62E00;" vertex="1" parent="1">
          <mxGeometry x="-770" y="378.25" width="290" height="230" as="geometry" />
        </mxCell>
        <mxCell id="Wv8BJaC0_amkNu4p2bPB-30" value="There should be a CentOps integrated flow to update the agencies database when needed" style="strokeWidth=1;shadow=0;dashed=0;align=center;html=1;shape=mxgraph.mockup.text.stickyNote2;fontColor=#666666;mainText=;fontSize=17;whiteSpace=wrap;fillColor=#ffffcc;strokeColor=#F62E00;" vertex="1" parent="1">
          <mxGeometry x="-790" y="70" width="290" height="230" as="geometry" />
        </mxCell>
        <mxCell id="Wv8BJaC0_amkNu4p2bPB-33" value="&lt;span style=&quot;font-size: 11px; text-wrap-mode: nowrap; background-color: rgb(18, 18, 18);&quot;&gt;True/False on whether&amp;nbsp;&lt;/span&gt;&lt;div style=&quot;font-size: 11px; text-wrap-mode: nowrap;&quot;&gt;agency exists in CKB&lt;/div&gt;" style="text;html=1;align=center;verticalAlign=middle;whiteSpace=wrap;rounded=0;" vertex="1" parent="1">
          <mxGeometry x="650" y="140" width="145" height="30" as="geometry" />
        </mxCell>
        <mxCell id="Wv8BJaC0_amkNu4p2bPB-35" style="edgeStyle=orthogonalEdgeStyle;rounded=0;orthogonalLoop=1;jettySize=auto;html=1;exitX=0;exitY=0.75;exitDx=0;exitDy=0;entryX=0.997;entryY=0.642;entryDx=0;entryDy=0;entryPerimeter=0;" edge="1" parent="1" source="Wv8BJaC0_amkNu4p2bPB-1" target="Wv8BJaC0_amkNu4p2bPB-2">
          <mxGeometry relative="1" as="geometry" />
        </mxCell>
        <mxCell id="Wv8BJaC0_amkNu4p2bPB-39" value="" style="rounded=1;whiteSpace=wrap;html=1;" vertex="1" parent="1">
          <mxGeometry x="1110" y="360" width="180" height="140" as="geometry" />
        </mxCell>
        <mxCell id="Wv8BJaC0_amkNu4p2bPB-41" value="" style="sketch=0;pointerEvents=1;shadow=0;dashed=0;html=1;strokeColor=none;fillColor=#DF8C42;labelPosition=center;verticalLabelPosition=bottom;verticalAlign=top;align=center;outlineConnect=0;shape=mxgraph.veeam2.aws_s3;" vertex="1" parent="1">
          <mxGeometry x="1170" y="385" width="64" height="70" as="geometry" />
        </mxCell>
        <mxCell id="Wv8BJaC0_amkNu4p2bPB-42" value="&lt;span style=&quot;font-size: 11px; text-wrap-mode: nowrap; background-color: rgb(18, 18, 18);&quot;&gt;CKB storage&lt;/span&gt;" style="text;html=1;align=center;verticalAlign=middle;whiteSpace=wrap;rounded=0;" vertex="1" parent="1">
          <mxGeometry x="1128.5" y="463" width="145" height="30" as="geometry" />
        </mxCell>
        <mxCell id="Wv8BJaC0_amkNu4p2bPB-43" value="&lt;div style=&quot;font-size: 11px; text-wrap-mode: nowrap;&quot;&gt;&lt;span style=&quot;background-color: rgb(18, 18, 18);&quot;&gt;Returns S3 URL with any authentication&lt;/span&gt;&lt;/div&gt;&lt;div style=&quot;font-size: 11px; text-wrap-mode: nowrap;&quot;&gt;&lt;span style=&quot;background-color: rgb(18, 18, 18);&quot;&gt;required&lt;/span&gt;&lt;/div&gt;" style="text;html=1;align=center;verticalAlign=middle;whiteSpace=wrap;rounded=0;" vertex="1" parent="1">
          <mxGeometry x="675" y="380" width="145" height="30" as="geometry" />
        </mxCell>
        <mxCell id="Wv8BJaC0_amkNu4p2bPB-47" style="edgeStyle=orthogonalEdgeStyle;rounded=0;orthogonalLoop=1;jettySize=auto;html=1;" edge="1" parent="1" source="Wv8BJaC0_amkNu4p2bPB-44" target="Wv8BJaC0_amkNu4p2bPB-46">
          <mxGeometry relative="1" as="geometry" />
        </mxCell>
        <mxCell id="Wv8BJaC0_amkNu4p2bPB-54" style="edgeStyle=orthogonalEdgeStyle;rounded=0;orthogonalLoop=1;jettySize=auto;html=1;" edge="1" parent="1" source="Wv8BJaC0_amkNu4p2bPB-44">
          <mxGeometry relative="1" as="geometry">
            <mxPoint x="785" y="790" as="targetPoint" />
          </mxGeometry>
        </mxCell>
        <mxCell id="Wv8BJaC0_amkNu4p2bPB-60" style="edgeStyle=orthogonalEdgeStyle;rounded=0;orthogonalLoop=1;jettySize=auto;html=1;exitX=0.75;exitY=1;exitDx=0;exitDy=0;entryX=0;entryY=0.5;entryDx=0;entryDy=0;" edge="1" parent="1" source="Wv8BJaC0_amkNu4p2bPB-44" target="Wv8BJaC0_amkNu4p2bPB-58">
          <mxGeometry relative="1" as="geometry" />
        </mxCell>
        <mxCell id="Wv8BJaC0_amkNu4p2bPB-44" value="/globalclassifier/&lt;span style=&quot;background-color: transparent; color: light-dark(rgb(0, 0, 0), rgb(255, 255, 255));&quot;&gt;POST/cronmanager /dataset/generate&lt;/span&gt;" style="rounded=1;whiteSpace=wrap;html=1;container=1;" vertex="1" parent="1">
          <mxGeometry x="650" y="590" width="270" height="100" as="geometry" />
        </mxCell>
        <mxCell id="Wv8BJaC0_amkNu4p2bPB-50" style="edgeStyle=orthogonalEdgeStyle;rounded=0;orthogonalLoop=1;jettySize=auto;html=1;exitX=0;exitY=0.75;exitDx=0;exitDy=0;entryX=1;entryY=0.75;entryDx=0;entryDy=0;" edge="1" parent="1" source="Wv8BJaC0_amkNu4p2bPB-46" target="Wv8BJaC0_amkNu4p2bPB-44">
          <mxGeometry relative="1" as="geometry" />
        </mxCell>
        <mxCell id="Wv8BJaC0_amkNu4p2bPB-46" value="/globalclassifier/POST/s3-ferry/v1/files/copy" style="rounded=1;whiteSpace=wrap;html=1;" vertex="1" parent="1">
          <mxGeometry x="1040" y="590" width="270" height="100" as="geometry" />
        </mxCell>
        <mxCell id="Wv8BJaC0_amkNu4p2bPB-48" style="edgeStyle=orthogonalEdgeStyle;rounded=0;orthogonalLoop=1;jettySize=auto;html=1;entryX=0.595;entryY=-0.026;entryDx=0;entryDy=0;entryPerimeter=0;" edge="1" parent="1" source="Wv8BJaC0_amkNu4p2bPB-39" target="Wv8BJaC0_amkNu4p2bPB-46">
          <mxGeometry relative="1" as="geometry" />
        </mxCell>
        <mxCell id="Wv8BJaC0_amkNu4p2bPB-49" value="&lt;font style=&quot;font-size: 11px;&quot;&gt;this cron-manager contains the background job which will perform the generation&lt;/font&gt;" style="strokeWidth=1;shadow=0;dashed=0;align=center;html=1;shape=mxgraph.mockup.text.stickyNote2;fontColor=#666666;mainText=;fontSize=17;whiteSpace=wrap;fillColor=#ffffcc;strokeColor=#F62E00;" vertex="1" parent="1">
          <mxGeometry x="675" y="463" width="120" height="105" as="geometry" />
        </mxCell>
        <mxCell id="Wv8BJaC0_amkNu4p2bPB-51" value="" style="rounded=1;whiteSpace=wrap;html=1;" vertex="1" parent="1">
          <mxGeometry x="1305" y="820" width="180" height="140" as="geometry" />
        </mxCell>
        <mxCell id="Wv8BJaC0_amkNu4p2bPB-52" value="" style="sketch=0;pointerEvents=1;shadow=0;dashed=0;html=1;strokeColor=none;fillColor=#DF8C42;labelPosition=center;verticalLabelPosition=bottom;verticalAlign=top;align=center;outlineConnect=0;shape=mxgraph.veeam2.aws_s3;" vertex="1" parent="1">
          <mxGeometry x="1363" y="840" width="64" height="70" as="geometry" />
        </mxCell>
        <mxCell id="Wv8BJaC0_amkNu4p2bPB-53" value="&lt;span style=&quot;font-size: 11px; text-wrap-mode: nowrap; background-color: rgb(18, 18, 18);&quot;&gt;Global Classifier storage&lt;/span&gt;" style="text;html=1;align=center;verticalAlign=middle;whiteSpace=wrap;rounded=0;" vertex="1" parent="1">
          <mxGeometry x="1335" y="920" width="145" height="30" as="geometry" />
        </mxCell>
        <mxCell id="Wv8BJaC0_amkNu4p2bPB-55" value="/globalclassifier/POST/s3-ferry/v1/files/upload" style="rounded=1;whiteSpace=wrap;html=1;" vertex="1" parent="1">
          <mxGeometry x="650" y="790" width="270" height="100" as="geometry" />
        </mxCell>
        <mxCell id="Wv8BJaC0_amkNu4p2bPB-56" style="edgeStyle=orthogonalEdgeStyle;rounded=0;orthogonalLoop=1;jettySize=auto;html=1;entryX=0;entryY=0.641;entryDx=0;entryDy=0;entryPerimeter=0;" edge="1" parent="1" source="Wv8BJaC0_amkNu4p2bPB-55" target="Wv8BJaC0_amkNu4p2bPB-51">
          <mxGeometry relative="1" as="geometry" />
        </mxCell>
        <mxCell id="Wv8BJaC0_amkNu4p2bPB-59" style="edgeStyle=orthogonalEdgeStyle;rounded=0;orthogonalLoop=1;jettySize=auto;html=1;entryX=0.5;entryY=0;entryDx=0;entryDy=0;exitX=1;exitY=0.5;exitDx=0;exitDy=0;" edge="1" parent="1" source="Wv8BJaC0_amkNu4p2bPB-58" target="Wv8BJaC0_amkNu4p2bPB-51">
          <mxGeometry relative="1" as="geometry" />
        </mxCell>
        <mxCell id="Wv8BJaC0_amkNu4p2bPB-58" value="/globalclassifier/POST/s3-ferry/v1/files/delete" style="rounded=1;whiteSpace=wrap;html=1;" vertex="1" parent="1">
          <mxGeometry x="1080" y="720" width="225" height="70" as="geometry" />
        </mxCell>
      </root>
    </mxGraphModel>
  </diagram>
</mxfile>
